<svg width="110" height="110" viewBox="0 0 110 110" fill="none" xmlns="http://www.w3.org/2000/svg">
<g clip-path="url(#clip0)">
<path fill-rule="evenodd" clip-rule="evenodd" d="M20.1543 89.9751C20.1544 89.9752 20.1544 89.9752 20.1544 89.9752C35.7742 105.595 61.0989 105.595 76.7187 89.9752C92.3385 74.3554 92.3385 49.0307 76.7187 33.4109C76.6983 33.3905 76.6779 33.3702 76.6575 33.3498L76.7186 33.4109L20.1543 89.9751Z" fill="#53D0EC"/>
<path fill-rule="evenodd" clip-rule="evenodd" d="M33.2822 76.8464C33.2822 76.8464 33.2822 76.8464 33.2822 76.8464C17.6624 61.2266 17.6624 35.9019 33.2822 20.2821C48.902 4.6623 74.2267 4.6623 89.8465 20.2821C89.8465 20.2821 89.8466 20.2821 89.8466 20.2821L33.2822 76.8464Z" fill="#E5386D"/>
</g>
<defs>
<clipPath id="clip0">
<rect width="110" height="110" fill="white"/>
</clipPath>
</defs>
</svg>
