<svg fill="none" height="99" viewBox="0 0 414 99" width="414" xmlns="http://www.w3.org/2000/svg" xmlns:xlink="http://www.w3.org/1999/xlink"><clipPath id="a"><path d="m0 0h414v99h-414z"/></clipPath><g clip-path="url(#a)"><path d="m99.2823 69.008c-3.456 0-6.336-.816-8.64-2.448-.432-.672-.744-1.752-.936-3.24-.192-1.536-.264-3.192-.216-4.968 0-.576.48-.864 1.44-.864.336 0 .648.12.936.36.288.192.48.432.576.72 1.008 2.304 2.112 4.104 3.312 5.4 1.2 1.248 2.592 1.872 4.176 1.872 1.1997 0 2.1597-.384 2.8797-1.152s1.08-1.68 1.08-2.736c0-1.152-.432-2.136-1.296-2.952s-2.112-1.656-3.7437-2.52c-2.544-1.296-4.56-2.736-6.048-4.32-1.44-1.584-2.16-3.576-2.16-5.976 0-2.784 1.104-5.04 3.312-6.768s4.968-2.592 8.2797-2.592c1.44 0 2.832.168 4.176.504 1.392.336 2.376.696 2.952 1.08.384.48.696 1.392.936 2.736.24 1.296.36 2.736.36 4.32 0 .24-.144.432-.432.576-.24.144-.528.216-.864.216s-.696-.12-1.08-.36c-.336-.24-.552-.48-.648-.72-.624-1.872-1.44-3.264-2.448-4.176-.96-.96-2.04-1.44-3.24-1.44-1.104 0-2.0877.36-2.9517 1.08-.816.672-1.224 1.56-1.224 2.664 0 .912.408 1.776 1.224 2.592.864.768 2.0877 1.584 3.6717 2.448 3.264 1.728 5.52 3.336 6.768 4.824 1.296 1.488 1.944 3.456 1.944 5.904 0 3.168-1.056 5.616-3.168 7.344-2.064 1.728-5.04 2.592-8.9277 2.592zm29.2577 0c-2.544 0-4.848-.672-6.912-2.016-2.064-1.392-3.696-3.288-4.896-5.688-1.152-2.4-1.728-5.088-1.728-8.064s.696-5.712 2.088-8.208 3.288-4.464 5.688-5.904c2.448-1.488 5.088-2.232 7.92-2.232 2.016 0 3.864.432 5.544 1.296s3 2.064 3.96 3.6 1.44 3.216 1.44 5.04c0 .96-.192 1.656-.576 2.088-.336.432-.888.648-1.656.648h-14.4c-.672 0-1.176.192-1.512.576-.288.384-.432 1.032-.432 1.944 0 2.784.888 5.136 2.664 7.056 1.776 1.872 4.008 2.808 6.696 2.808 1.344 0 2.592-.24 3.744-.72 1.152-.528 2.352-1.272 3.6-2.232.48-.384.816-.576 1.008-.576.48 0 .72.312.72.936s-.192 1.344-.576 2.16c-.768 2.016-2.28 3.768-4.536 5.256-2.208 1.488-4.824 2.232-7.848 2.232zm.792-22.464c1.104 0 1.968-.024 2.592-.072s1.176-.144 1.656-.288c.24-.096.432-.336.576-.72s.216-.816.216-1.296c0-1.248-.456-2.28-1.368-3.096-.864-.864-1.944-1.296-3.24-1.296-1.488 0-2.832.624-4.032 1.872-1.2 1.2-1.776 2.496-1.728 3.888 0 .672.336 1.008 1.008 1.008zm14.327 42.12c-1.92 0-2.88-.384-2.88-1.152 0-.576.456-1.08 1.368-1.512.864-.384 1.608-.864 2.232-1.44.672-.528 1.296-1.392 1.872-2.592.816-1.776 1.392-4.392 1.728-7.848.336-3.408.504-6.696.504-9.864v-16.632c0-1.584-.264-2.712-.792-3.384-.48-.72-1.272-1.176-2.376-1.368-.24-.048-.432-.192-.576-.432s-.216-.528-.216-.864c0-.288.072-.552.216-.792.192-.24.384-.384.576-.432 2.112-.384 3.984-.912 5.616-1.584 1.68-.672 3.504-1.488 5.472-2.448.864-.384 1.368-.576 1.512-.576.576 0 .864.288.864.864l-.288 3.096c-.384 3.36-.576 5.928-.576 7.704l.072 14.04c0 3.216-.168 6.288-.504 9.216-.336 2.976-1.08 5.736-2.232 8.28-1.104 2.496-2.832 4.728-5.184 6.696-2.304 2.016-4.44 3.024-6.408 3.024zm9.216-56.16c-1.536 0-2.856-.552-3.96-1.656s-1.656-2.424-1.656-3.96c0-1.632.552-3 1.656-4.104s2.424-1.656 3.96-1.656c1.632 0 3 .552 4.104 1.656 1.152 1.104 1.728 2.472 1.728 4.104 0 1.536-.576 2.856-1.728 3.96-1.104 1.104-2.472 1.656-4.104 1.656zm34.533 37.008c-.384 0-.576-.24-.576-.72 0-.672.072-1.44.216-2.304l.144-2.232c0-.432-.048-.696-.144-.792-1.344 1.632-3.048 2.976-5.112 4.032-2.016 1.056-4.104 1.584-6.264 1.584-2.256 0-4.152-.96-5.688-2.88-1.488-1.968-2.232-4.392-2.232-7.272v-13.464c0-1.2-.216-2.112-.648-2.736-.432-.672-1.176-1.104-2.232-1.296-.288-.048-.552-.168-.792-.36-.192-.24-.288-.576-.288-1.008 0-.768.36-1.176 1.08-1.224 3.12-.144 6.6-.72 10.44-1.728.192-.048.432-.096.72-.144.336-.096.6-.144.792-.144.672 0 .984.336.936 1.008-.384 1.968-.576 3.816-.576 5.544v13.824c0 1.728.408 3.12 1.224 4.176s1.872 1.608 3.168 1.656c1.872 0 3.336-.528 4.392-1.584.384-.336.72-.864 1.008-1.584.288-.768.432-1.728.432-2.88v-11.592c0-1.2-.36-2.136-1.08-2.808-.72-.72-1.656-1.128-2.808-1.224-.576-.048-1.008-.192-1.296-.432s-.432-.624-.432-1.152c0-.48.168-.84.504-1.08s.744-.36 1.224-.36c3.648-.24 6.24-.432 7.776-.576s2.976-.384 4.32-.72c.576-.144.888-.216.936-.216.72 0 1.08.288 1.08.864 0 .144-.096.504-.288 1.08-.096.576-.216 1.416-.36 2.52-.096 1.104-.144 1.944-.144 2.52v16.704c0 1.824.432 2.736 1.296 2.736l2.016.072c.432 0 .768.12 1.008.36s.36.552.36.936c0 .48-.096.84-.288 1.08-.144.24-.456.384-.936.432-3.552.336-7.224 1.296-11.016 2.88-.144.048-.432.144-.864.288-.384.144-.72.216-1.008.216zm17.336-1.296c-.96 0-1.44-.336-1.44-1.008s.552-1.152 1.656-1.44c1.056-.384 1.776-.72 2.16-1.008s.576-.888.576-1.8v-34.56c0-1.536-.192-2.712-.576-3.528-.384-.864-1.128-1.416-2.232-1.656-.528-.096-.792-.456-.792-1.08s.24-.984.72-1.08c1.776-.336 4.896-1.32 9.36-2.952l1.656-.648c.432-.144.744-.216.936-.216.48 0 .72.288.72.864l-.144 1.512-.288 3.456.072 26.928c0 .576.216.864.648.864.288 0 .672-.192 1.152-.576 1.632-1.44 3.168-2.952 4.608-4.536s2.424-2.784 2.952-3.6c.096-.144.216-.336.36-.576.192-.288.288-.504.288-.648 0-.288-.216-.552-.648-.792-.384-.24-.936-.408-1.656-.504-.576-.096-.864-.36-.864-.792 0-.672.528-1.008 1.584-1.008h3.528c1.296 0 4.752-.216 10.368-.648.528 0 .792.264.792.792 0 .768-.552 1.272-1.656 1.512-1.728.384-3.792 1.272-6.192 2.664-1.248.672-2.592 1.56-4.032 2.664-1.44 1.056-2.688 2.088-3.744 3.096-.24.24-.36.504-.36.792 0 .144.144.408.432.792l2.736 3.6c2.736 3.744 5.064 6.696 6.984 8.856.72.816 1.656 1.584 2.808 2.304s2.16 1.248 3.024 1.584c.096.048.336.144.72.288.384.096.672.24.864.432.24.192.36.408.36.648 0 .672-.528 1.008-1.584 1.008-2.16 0-5.112-.048-8.856-.144l-7.344-.072c-.432 0-.792-.096-1.08-.288-.24-.192-.36-.432-.36-.72 0-.336.12-.6.36-.792.288-.24.696-.456 1.224-.648.768-.288 1.176-.672 1.224-1.152 0-.24-.288-.768-.864-1.584l-6.984-9.648c-.096-.096-.216-.144-.36-.144-.288 0-.432.168-.432.504v4.464 5.04c0 .768.168 1.344.504 1.728.336.336.888.648 1.656.936 1.008.384 1.512.864 1.512 1.44 0 .336-.12.6-.36.792s-.552.288-.936.288c-1.44 0-2.736-.072-3.888-.216-1.44-.096-2.568-.144-3.384-.144-.768 0-1.92.048-3.456.144-1.296.144-2.64.216-4.032.216zm46.001.792c-1.92 0-3.6-.648-5.04-1.944-1.44-1.344-2.16-2.928-2.16-4.752 0-1.632.48-2.976 1.44-4.032 1.008-1.104 2.568-2.112 4.68-3.024l6.408-2.808c.96-.432 1.536-.816 1.728-1.152.24-.336.36-.96.36-1.872l.072-4.104c.048-1.392-.192-2.472-.72-3.24s-1.32-1.152-2.376-1.152c-.576 0-1.2.144-1.872.432-.624.24-1.104.528-1.44.864-.288.336-.432.84-.432 1.512 0 .336.024.696.072 1.08.048.336.072.672.072 1.008 0 .48-.816 1.08-2.448 1.8-1.584.72-2.904 1.08-3.96 1.08-.384 0-.696-.144-.936-.432s-.36-.648-.36-1.08c0-.768.264-1.512.792-2.232s1.392-1.584 2.592-2.592c1.872-1.536 3.984-2.832 6.336-3.888s4.32-1.584 5.904-1.584c2.544 0 4.584.84 6.12 2.52 1.536 1.632 2.28 3.816 2.232 6.552l-.36 14.544c-.048 1.104.144 2.04.576 2.808s.96 1.152 1.584 1.152c.912 0 1.704-.312 2.376-.936.144-.144.288-.216.432-.216.24 0 .432.096.576.288.192.144.288.312.288.504 0 .624-.432 1.368-1.296 2.232-1.776 1.776-3.792 2.664-6.048 2.664-1.392 0-2.616-.336-3.672-1.008-1.056-.624-2.064-1.656-3.024-3.096h-.144c-1.584 1.488-3.024 2.544-4.32 3.168-1.248.624-2.592.936-4.032.936zm4.32-4.68c.912 0 1.68-.36 2.304-1.08.336-.528.504-1.152.504-1.872l.216-5.184c0-.768-.24-1.152-.72-1.152-.24 0-.528.096-.864.288-1.536.72-2.616 1.44-3.24 2.16-.576.72-.864 1.8-.864 3.24 0 1.248.264 2.16.792 2.736s1.152.864 1.872.864zm33.73 4.68c-3.12 0-5.496-.792-7.128-2.376-1.584-1.584-2.376-3.864-2.376-6.84v-16.56c0-.432-.168-.744-.504-.936s-.912-.312-1.728-.36h-.936c-.288 0-.552-.264-.792-.792s-.36-1.032-.36-1.512c0-.336.144-.576.432-.72 2.4-.864 5.904-3.312 10.512-7.344.096-.096.264-.216.504-.36.24-.192.456-.336.648-.432s.408-.144.648-.144c.48 0 .792.096.936.288s.192.576.144 1.152l-.432 4.248v.288c0 .816.576 1.224 1.728 1.224h8.568c.144 0 .288.168.432.504s.216.648.216.936c0 .72-.096 1.392-.288 2.016-.192.576-.408.864-.648.864h-6.696c-1.104 0-1.872.144-2.304.432-.384.24-.576.696-.576 1.368v13.608c0 2.16.408 3.792 1.224 4.896s1.944 1.656 3.384 1.656c1.104 0 1.944-.072 2.52-.216.624-.192 1.128-.384 1.512-.576.432-.192.696-.312.792-.36.192-.096.336-.144.432-.144.24 0 .432.144.576.432.144.24.216.576.216 1.008 0 .336-.552.912-1.656 1.728-1.056.768-2.4 1.464-4.032 2.088s-3.288.936-4.968.936zm20.52 0c-1.92 0-3.6-.648-5.04-1.944-1.44-1.344-2.16-2.928-2.16-4.752 0-1.632.48-2.976 1.44-4.032 1.008-1.104 2.568-2.112 4.68-3.024l6.408-2.808c.96-.432 1.536-.816 1.728-1.152.24-.336.36-.96.36-1.872l.072-4.104c.048-1.392-.192-2.472-.72-3.24s-1.32-1.152-2.376-1.152c-.576 0-1.2.144-1.872.432-.624.24-1.104.528-1.44.864-.288.336-.432.84-.432 1.512 0 .336.024.696.072 1.08.048.336.072.672.072 1.008 0 .48-.816 1.08-2.448 1.8-1.584.72-2.904 1.08-3.96 1.08-.384 0-.696-.144-.936-.432s-.36-.648-.36-1.08c0-.768.264-1.512.792-2.232s1.392-1.584 2.592-2.592c1.872-1.536 3.984-2.832 6.336-3.888s4.32-1.584 5.904-1.584c2.544 0 4.584.84 6.12 2.52 1.536 1.632 2.28 3.816 2.232 6.552l-.36 14.544c-.048 1.104.144 2.04.576 2.808s.96 1.152 1.584 1.152c.912 0 1.704-.312 2.376-.936.144-.144.288-.216.432-.216.24 0 .432.096.576.288.192.144.288.312.288.504 0 .624-.432 1.368-1.296 2.232-1.776 1.776-3.792 2.664-6.048 2.664-1.392 0-2.616-.336-3.672-1.008-1.056-.624-2.064-1.656-3.024-3.096h-.144c-1.584 1.488-3.024 2.544-4.32 3.168-1.248.624-2.592.936-4.032.936zm4.32-4.68c.912 0 1.68-.36 2.304-1.08.336-.528.504-1.152.504-1.872l.216-5.184c0-.768-.24-1.152-.72-1.152-.24 0-.528.096-.864.288-1.536.72-2.616 1.44-3.24 2.16-.576.72-.864 1.8-.864 3.24 0 1.248.264 2.16.792 2.736s1.152.864 1.872.864z" fill="#000"/><g clip-rule="evenodd" fill-rule="evenodd"><path d="m332 80.3594c13.609 13.6085 35.672 13.6085 49.281 0 13.608-13.6085 13.608-35.6723 0-49.2808z" fill="#53d0ec"/><path d="m37.6406 68.9213c-13.6085-13.6085-13.6085-35.6723 0-49.2809 13.6085-13.60849 35.6723-13.60849 49.2809 0z" fill="#e5386d"/></g></g></svg>